<svg xmlns="http://www.w3.org/2000/svg" xmlns:xlink="http://www.w3.org/1999/xlink" viewBox="0,0,256,256" width="48px" height="48px" fill-rule="nonzero"><g transform="translate(-42.24,-42.24) scale(1.33,1.33)"><g fill-opacity="0" fill="#ffffff" fill-rule="nonzero" stroke="none" stroke-width="1" stroke-linecap="butt" stroke-linejoin="miter" stroke-miterlimit="10" stroke-dasharray="" stroke-dashoffset="0" font-family="none" font-weight="none" font-size="none" text-anchor="none" style="mix-blend-mode: normal"><path d="M31.7594,224.2406v-192.4812h192.4812v192.4812z" id="bgRectangle"></path></g><g fill="none" fill-rule="nonzero" stroke="none" stroke-width="1" stroke-linecap="butt" stroke-linejoin="miter" stroke-miterlimit="10" stroke-dasharray="" stroke-dashoffset="0" font-family="none" font-weight="none" font-size="none" text-anchor="none" style="mix-blend-mode: normal"><g transform="scale(5.33333,5.33333)"><path d="M40,13h-15v22h15c1.104,0 2,-0.896 2,-2v-18c0,-1.104 -0.896,-2 -2,-2z" fill="#64b5f6"></path><path d="M39,18.243v0.7v1.742c0,0.141 0,0.377 -0.141,0.498l-1.82,1.819c-0.139,0.141 -0.28,0.141 -0.42,0l-0.699,-0.56c-0.141,-0.14 -0.141,-0.28 0,-0.42l0.839,-0.84v0v-2.94h-2.52c-2.24,1.68 -4.06,4.76 -4.62,4.2c-0.699,-0.561 3.641,-6.3 4.199,-6.44h2.94h1.82c0.28,0 0.421,0.141 0.421,0.421v1.82z" fill="#ffffff"></path><path d="M36.76,32h-0.7h-1.742c-0.141,0 -0.377,0 -0.498,-0.141l-1.82,-1.82c-0.141,-0.14 -0.141,-0.28 0,-0.42l0.56,-0.7c0.14,-0.141 0.28,-0.141 0.42,0l0.84,0.84v0h2.94v-2.52c-1.68,-2.24 -4.76,-4.061 -4.2,-4.62c0.561,-0.7 6.3,3.641 6.44,4.199v2.94v1.82c0,0.281 -0.141,0.422 -0.421,0.422h-1.819z" fill="#ffffff"></path><path d="M23.543,29.76v-0.7v-1.742c0,-0.141 0,-0.377 0.141,-0.498l1.82,-1.82c0.139,-0.141 0.28,-0.141 0.42,0l0.699,0.56c0.141,0.14 0.141,0.28 0,0.42l-0.839,0.84v0v2.94h2.52c2.24,-1.68 4.06,-4.76 4.62,-4.2c0.699,0.561 -3.641,6.3 -4.199,6.44h-2.94h-1.82c-0.28,0 -0.421,-0.141 -0.421,-0.421v-1.819z" fill="#ffffff"></path><path d="M25.783,16.003h0.7h1.742c0.141,0 0.377,0 0.498,0.141l1.819,1.82c0.141,0.14 0.141,0.28 0,0.42l-0.56,0.7c-0.14,0.141 -0.28,0.141 -0.42,0l-0.84,-0.84v0h-2.94v2.52c1.68,2.24 4.76,4.061 4.2,4.62c-0.561,0.7 -6.3,-3.641 -6.44,-4.199v-2.94v-1.82c0,-0.28 0.141,-0.421 0.421,-0.421h1.82z" fill="#ffffff"></path><path d="M27,42l-21,-4v-28l21,-4z" fill="#1e88e5"></path><path d="M20,32.813l-8,-0.701v-15.303l7.72,-0.836v3.083l-4.771,0.283v3.511l4.352,-0.139v3.082h-4.352v3.655l5.051,0.28z" fill="#ffffff"></path></g></g></g></svg>